<?xml version="1.0" encoding="UTF-8" standalone="no"?>
<svg width="286px" height="212px" viewBox="0 0 286 212" version="1.1" xmlns="http://www.w3.org/2000/svg" xmlns:xlink="http://www.w3.org/1999/xlink">
    <!-- Generator: Sketch 50.2 (55047) - http://www.bohemiancoding.com/sketch -->
    <title>icon</title>
    <desc>Created with Sketch.</desc>
    <defs>
        <polygon id="path-1" points="-1.52199705e-05 0.0024 119.999915 0.0024 119.999915 119.98443 -1.52199705e-05 119.98443"></polygon>
    </defs>
    <g id="Page-1" stroke="none" stroke-width="1" fill="none" fill-rule="evenodd">
        <g id="定稿" transform="translate(-232.000000, -752.000000)">
            <g id="icon" transform="translate(234.000000, 754.000000)">
                <path d="M41,110 C41,165.228333 85.7716667,210 141,210 C196.228333,210 241,165.228333 241,110 C241,54.77125 196.228333,10 141,10 C85.7716667,10 41,54.77125 41,110" id="Fill-1" fill="#FFFFFF" opacity="0.6"></path>
                <path d="M41,110 C41,165.228333 85.7716667,210 141,210 C196.228333,210 241,165.228333 241,110 C241,54.77125 196.228333,10 141,10 C85.7716667,10 41,54.77125 41,110" id="Fill-1" fill="#50E3C2" opacity="0.2"></path>
                <path d="M61,110 C61,154.182667 96.8173333,190 141,190 C185.182667,190 221,154.182667 221,110 C221,65.817 185.182667,30 141,30 C96.8173333,30 61,65.817 61,110" id="Fill-1" fill="#50E3C2" opacity="0.6"></path>
                <g id="Group-6" transform="translate(70.000000, 105.000000)" fill="#FFFFFF">
                    <path d="M7.5,3 C5.019,3 3,5.019 3,7.5 C3,9.981 5.019,12 7.5,12 C9.981,12 12,9.981 12,7.5 C12,5.019 9.981,3 7.5,3 M7.5,15 C3.364,15 0,11.636 0,7.5 C0,3.364 3.364,0 7.5,0 C11.636,0 15,3.364 15,7.5 C15,11.636 11.636,15 7.5,15" id="Fill-1"></path>
                    <path d="M150.5,5.3999 C149.342,5.3999 148.4,6.3419 148.4,7.4999 C148.4,8.6579 149.342,9.5999 150.5,9.5999 C151.658,9.5999 152.6,8.6579 152.6,7.4999 C152.6,6.3419 151.658,5.3999 150.5,5.3999 M150.5,10.9999 C148.57,10.9999 147,9.4299 147,7.4999 C147,5.5699 148.57,3.9999 150.5,3.9999 C152.43,3.9999 154,5.5699 154,7.4999 C154,9.4299 152.43,10.9999 150.5,10.9999" id="Fill-3"></path>
                    <g id="+" transform="translate(69.000000, 36.000000)">
                        <path d="M2.082,9.4556 C1.368,9.4556 0.735,8.9436 0.606,8.2156 C0.463,7.3996 1.008,6.6216 1.823,6.4776 L12.655,4.5676 C13.465,4.4246 14.249,4.9686 14.394,5.7846 C14.537,6.6006 13.992,7.3786 13.177,7.5216 L2.345,9.4326 C2.257,9.4476 2.169,9.4556 2.082,9.4556" id="Fill-8"></path>
                        <path d="M8.4531,13.917 C7.7391,13.917 7.1061,13.405 6.9771,12.677 L5.0671,1.844 C4.9241,1.028 5.4691,0.25 6.2841,0.106 C7.0951,-0.038 7.8781,0.506 8.0221,1.323 L9.9321,12.156 C10.0761,12.972 9.5311,13.75 8.7161,13.894 C8.6281,13.909 8.5401,13.917 8.4531,13.917" id="Fill-12"></path>
                    </g>
                </g>
                <g id="Group-47" transform="translate(101.000000, 30.000000)">
                    <polygon id="Fill-28" fill="#FF7404" points="44.63514 26.18742 22.36014 26.18742 2.34414 46.20372 13.48164 57.34122 62.62554 106.48542 73.76304 117.62292 93.77934 97.60632 93.77934 75.33162"></polygon>
                    <path d="M58.84323,110.2677 L96.06183,73.0491 C114.06603,55.0449 121.50993,29.0271 115.75203,4.2246 L115.77753,4.2498 C90.97503,-1.5072 64.95723,5.9364 46.95303,23.9406 L9.73473,61.1589 L58.84323,110.2677 Z" id="Fill-30" fill="#EFFEFA"></path>
                    <path d="M69.99348,32.64153 C79.57278,32.64153 87.33798,40.40703 87.33798,49.98603 C87.33798,59.56533 79.57278,67.33083 69.99348,67.33083 C60.41418,67.33083 52.64868,59.56533 52.64868,49.98603 C52.64868,40.40703 60.41418,32.64153 69.99348,32.64153" id="Fill-32" fill="#50E3C2"></path>
                    <polygon id="Fill-34" fill="#FF7404" points="36.60018 108.11439 11.86398 83.37849 19.11678 70.54089 49.43778 100.86189"></polygon>
                    <path d="M32.04291,103.53585 C26.51901,109.05975 19.63551,113.02875 12.08691,115.04205 L2.34411,117.64065 L4.94271,107.89755 C6.95571,100.34925 10.92471,93.46575 16.44891,87.94185 L32.04291,103.53585 Z" id="Fill-36" fill="#FBE80C"></path>
                    <g id="Group-40">
                        <mask id="mask-2" fill="white">
                            <use xlink:href="#path-1"></use>
                        </mask>
                        <g id="Clip-39"></g>
                        <path d="M94.40454,71.39193 L60.97074,104.82543 C60.97014,104.82633 60.96894,104.82693 60.96834,104.82753 C60.96774,104.82843 60.96684,104.82933 60.96624,104.82993 L58.84344,106.95273 L51.09564,99.20493 L51.09534,99.20463 L20.77404,68.88363 C20.77374,68.88333 20.77284,68.88273 20.77254,68.88213 L13.04934,61.15923 L19.46214,54.74643 L50.74314,86.02743 C51.20094,86.48523 51.80064,86.71383 52.40064,86.71383 C53.00034,86.71383 53.60004,86.48523 54.05784,86.02743 C54.97284,85.11213 54.97284,83.62803 54.05784,82.71243 L22.77684,51.43143 L48.61044,25.59783 C65.80764,8.40003 90.07524,1.21173 113.79174,6.21093 C118.79034,29.92743 111.60204,54.19443 94.40454,71.39193 Z M91.43574,96.63573 L73.76304,114.30813 L65.94054,106.48533 L91.43544,80.99043 L91.43544,96.63573 L91.43574,96.63573 Z M36.99804,105.19743 L33.87414,102.07353 C33.82014,102.00603 33.76284,101.94063 33.70044,101.87793 C33.63804,101.81583 33.57264,101.75853 33.50514,101.70453 L18.28014,86.47953 C18.22614,86.41203 18.16884,86.34693 18.10644,86.28423 C18.04404,86.22183 17.97864,86.16453 17.91114,86.11083 L14.78124,82.98093 L19.64034,74.37963 L45.59904,100.33833 L36.99804,105.19743 Z M11.48304,112.77693 L5.65224,114.33213 L7.20744,108.50133 C8.90874,102.12243 12.10164,96.22833 16.48824,91.31733 L28.66674,103.49583 C23.75574,107.88273 17.86194,111.07593 11.48304,112.77693 Z M5.65884,46.20363 L23.33124,28.53153 L39.04704,28.53153 L17.80614,49.77243 C17.80584,49.77273 17.80494,49.77303 17.80464,49.77363 C17.80404,49.77453 17.80374,49.77483 17.80314,49.77573 L13.51704,54.06153 L5.65884,46.20363 Z M118.10994,4.01853 C118.05804,3.49653 117.83154,2.99313 117.44214,2.60043 L117.41724,2.57493 C117.02244,2.17683 116.51214,1.94463 115.98174,1.89243 C103.52334,-0.94137 90.45624,-0.58347 78.17094,2.93133 C65.77824,6.47673 54.41004,13.16853 45.29544,22.28343 L43.73514,23.84373 L22.36014,23.84373 C21.73854,23.84373 21.14244,24.09063 20.70294,24.53013 L0.68664,44.54643 C-0.22866,45.46143 -0.22866,46.94583 0.68664,47.86113 L10.20204,57.37683 L8.07714,59.50173 C7.16184,60.41703 7.16184,61.90143 8.07714,62.81673 L16.19964,70.93923 L9.82284,82.22583 C9.30534,83.14263 9.46194,84.29193 10.20654,85.03623 L13.16964,87.99933 C8.20374,93.49623 4.59144,100.11843 2.67804,107.29353 L0.07914,117.03603 C-0.13626,117.84453 0.09504,118.70613 0.68664,119.29803 C1.13184,119.74293 1.73034,119.98443 2.34414,119.98443 C2.54514,119.98443 2.74824,119.95863 2.94774,119.90493 L12.69084,117.30633 C19.86564,115.39263 26.48814,111.78063 31.98504,106.81413 L34.94214,109.77153 C35.39364,110.22273 35.99334,110.45793 36.60024,110.45793 C36.99444,110.45793 37.39134,110.35863 37.75224,110.15493 L49.03914,103.77843 L57.18534,111.92433 C57.64314,112.38213 58.24284,112.61103 58.84254,112.61103 C59.44224,112.61103 60.04194,112.38213 60.49974,111.92433 L62.62494,109.79943 L72.10464,119.27943 C72.54444,119.71893 73.14054,119.96583 73.76184,119.96583 C74.38344,119.96583 74.97954,119.71893 75.41934,119.27943 L95.43534,99.26313 C95.87484,98.82363 96.12204,98.22753 96.12204,97.60623 L96.12204,76.30233 L97.71804,74.70633 C106.83234,65.59143 113.52414,54.22323 117.06984,41.83053 C120.58584,29.54493 120.94374,16.47723 118.10994,4.01853 Z" id="Fill-38" fill="#545555" mask="url(#mask-2)"></path>
                    </g>
                    <path d="M87.33753,47.6421 C86.04333,47.6421 84.99363,48.6918 84.99363,49.986 L84.99243,50.1348 C84.98193,51.4293 86.02293,52.4868 87.31743,52.4976 C87.32403,52.4976 87.33063,52.4979 87.33693,52.4979 C88.62243,52.4979 89.67003,51.4605 89.68053,50.1726 L89.68143,49.986 C89.68113,48.6918 88.63173,47.6421 87.33753,47.6421" id="Fill-41" fill="#545555"></path>
                    <path d="M86.16258,56.69808 C85.04448,56.04468 83.60928,56.42178 82.95618,57.53958 C80.27298,62.13348 75.30558,64.98708 69.99288,64.98708 C61.72128,64.98708 54.99168,58.25748 54.99168,49.98588 C54.99168,41.71458 61.72128,34.98498 69.99288,34.98498 C74.43918,34.98498 78.63048,36.94158 81.49158,40.35168 C82.32408,41.34378 83.80278,41.47218 84.79398,40.64088 C85.78548,39.80898 85.91508,38.33028 85.08288,37.33878 C81.32898,32.86338 75.82908,30.29688 69.99288,30.29688 C59.13648,30.29688 50.30418,39.12918 50.30418,49.98558 C50.30418,60.84198 59.13648,69.67428 69.99288,69.67428 C76.96518,69.67428 83.48358,65.93028 87.00408,59.90358 C87.65718,58.78638 87.28008,57.35118 86.16258,56.69808" id="Fill-43" fill="#545555"></path>
                    <path d="M57.89901,87.52599 C57.28251,87.52599 56.67801,87.77469 56.24211,88.21299 C55.80621,88.64859 55.55541,89.25129 55.55541,89.86959 C55.55541,90.48609 55.80591,91.09089 56.24211,91.52679 C56.67801,91.96269 57.28251,92.21349 57.89901,92.21349 C58.51791,92.21349 59.12001,91.96299 59.55591,91.52679 C59.99421,91.08849 60.24261,90.48609 60.24261,89.86959 C60.24261,89.25339 59.99421,88.64859 59.55591,88.21299 C59.12031,87.77439 58.51791,87.52599 57.89901,87.52599" id="Fill-45" fill="#545555"></path>
                </g>
                <g id="tex" stroke-linecap="round" stroke-linejoin="round">
                    <g id="Group-5" transform="translate(0.000000, 133.000000)" stroke="#FFD04F" stroke-width="4">
                        <path d="M0.840444444,13.4865185 L5.81822222,13.4865185" id="Stroke-1"></path>
                        <path d="M22.0845926,13.4865185 L27.0608889,13.4865185" id="Stroke-2"></path>
                        <path d="M13.9336296,0.380444444 L13.9336296,5.35674074" id="Stroke-4"></path>
                        <path d="M13.9336296,21.6231111 L13.9336296,26.5994074" id="Stroke-5"></path>
                        <path d="M4.67288889,4.22148148 L6.12177778,5.67037037" id="Stroke-7"></path>
                        <path d="M21.7663704,21.314963 L23.2152593,22.7638519" id="Stroke-8"></path>
                        <path d="M23.2001481,4.21140741 L21.7512593,5.6602963" id="Stroke-10"></path>
                        <path d="M6.10666667,21.3048889 L4.65777778,22.7537778" id="Stroke-12"></path>
                    </g>
                    <g id="Group-8" transform="translate(220.000000, 0.000000)" stroke="#FF7404" stroke-width="4">
                        <path d="M0.1933,6.3146 L3.1933,6.3146" id="Stroke-1"></path>
                        <path d="M8.4433,6.3146 L11.4433,6.3146" id="Stroke-2"></path>
                        <path d="M5.8114,0.6906 L5.8114,3.6906" id="Stroke-3"></path>
                        <path d="M5.8114,8.9406 L5.8114,11.9406" id="Stroke-4"></path>
                    </g>
                    <path d="M255.7548,124.3791 C256.9268,125.5501 256.9268,127.4491 255.7548,128.6211 C254.5828,129.7931 252.6838,129.7931 251.5128,128.6211 C250.3408,127.4491 250.3408,125.5501 251.5128,124.3791 C252.6838,123.2071 254.5828,123.2071 255.7548,124.3791 Z" id="Stroke-5" stroke="#FFE35E" stroke-width="5"></path>
                    <path d="M104.414,200.586 C105.195333,201.366667 105.195333,202.632667 104.414,203.414 C103.632667,204.195333 102.366667,204.195333 101.586,203.414 C100.804667,202.632667 100.804667,201.366667 101.586,200.586 C102.366667,199.804667 103.632667,199.804667 104.414,200.586 Z" id="Stroke-5" stroke="#FF7404" stroke-width="5"></path>
                    <path d="M279.7157,68.1066 C282.0537,70.4496 282.0537,74.2496 279.7157,76.5916 C277.3787,78.9346 273.5897,78.9346 271.2527,76.5916 C268.9157,74.2496 268.9157,70.4496 271.2527,68.1066 C273.5897,65.7636 277.3787,65.7636 279.7157,68.1066 Z" id="Stroke-7" stroke="#FF7404" stroke-width="5"></path>
                    <path d="M38.830963,47.9536296 C41.1391111,50.2617778 41.1391111,54.004 38.830963,56.3121481 C36.5213333,58.6202963 32.7805926,58.6202963 30.470963,56.3121481 C28.1642963,54.004 28.1642963,50.2617778 30.470963,47.9536296 C32.7805926,45.644 36.5213333,45.644 38.830963,47.9536296 Z" id="Stroke-14" stroke="#FFE35E" stroke-width="5"></path>
                </g>
            </g>
        </g>
    </g>
</svg>